<svg width="24" height="25" viewBox="0 0 24 25" fill="none" xmlns="http://www.w3.org/2000/svg">
<path d="M21 2.94806H3C2.73478 2.94806 2.48043 3.05342 2.29289 3.24095C2.10536 3.42849 2 3.68284 2 3.94806L2 21.9481C2 22.2133 2.10536 22.4676 2.29289 22.6552C2.48043 22.8427 2.73478 22.9481 3 22.9481H21C21.2652 22.9481 21.5196 22.8427 21.7071 22.6552C21.8946 22.4676 22 22.2133 22 21.9481L22 3.94806C22 3.68284 21.8946 3.42849 21.7071 3.24095C21.5196 3.05342 21.2652 2.94806 21 2.94806ZM11 20.9481H4L4 10.9481H11L11 20.9481ZM20 20.9481H13L13 10.9481H20L20 20.9481ZM20 8.94806H4L4 4.94806H20L20 8.94806Z" fill="#222222"/>
</svg>
