<svg width="57" height="57" viewBox="0 0 57 57" fill="none" xmlns="http://www.w3.org/2000/svg">
<path d="M47.166 21.745C45.311 12.4466 36.6963 5.41162 26.3527 5.41162C14.6487 5.41162 5.16602 14.4066 5.16602 25.5016C5.16602 30.8333 7.35468 35.675 10.927 39.2683C11.711 40.0616 12.236 41.142 12.0237 42.255C11.6787 44.0649 10.888 45.7602 9.72302 47.1876C12.7761 47.7408 15.9265 47.2553 18.6713 45.8086C19.6327 45.3 20.1157 45.048 20.454 44.9966C20.692 44.9593 21.0023 44.9943 21.4993 45.0783" stroke="#222222" stroke-width="4.6648" stroke-linecap="round" stroke-linejoin="round"/>
<path d="M26.166 38.6891C26.166 45.4675 31.913 50.9648 38.9993 50.9648C39.8347 50.9648 40.6622 50.8886 41.482 50.7361C42.0723 50.6265 42.3664 50.5705 42.5717 50.6008C42.777 50.6335 43.0687 50.7875 43.652 51.0978C45.2993 51.9751 47.222 52.2855 49.0723 51.9401C48.3643 51.0675 47.8848 50.0322 47.677 48.9278C47.5487 48.2465 47.866 47.5861 48.3443 47.1031C50.5726 44.8692 51.8267 41.8444 51.8327 38.6891C51.8327 31.9085 46.0857 26.4111 38.9993 26.4111C31.913 26.4111 26.166 31.9085 26.166 38.6891Z" stroke="url(#paint0_linear_4102_810)" stroke-width="4.1048" stroke-linecap="round" stroke-linejoin="round"/>
<defs>
<linearGradient id="paint0_linear_4102_810" x1="51.8327" y1="26.4111" x2="26.4237" y2="26.1585" gradientUnits="userSpaceOnUse">
<stop stop-color="#FFF800"/>
<stop offset="1" stop-color="#FB0000"/>
</linearGradient>
</defs>
</svg>
