<svg width="57" height="57" viewBox="0 0 57 57" fill="none" xmlns="http://www.w3.org/2000/svg">
<path d="M12.1667 19.4121H44.8333V14.7454H12.1667V19.4121ZM7.5 52.0788V10.0788H14.5V5.41211H19.1667V10.0788H37.8333V5.41211H42.5V10.0788H49.5V27.9871C48.7611 27.6371 48.0028 27.3454 47.225 27.1121C46.4472 26.8788 45.65 26.7038 44.8333 26.5871V24.0788H12.1667V47.4121H26.8667C27.1389 48.2677 27.4601 49.0843 27.8303 49.8621C28.2006 50.6399 28.6377 51.3788 29.1417 52.0788H7.5ZM42.5 54.4121C39.2722 54.4121 36.5212 53.2742 34.247 50.9984C31.9728 48.7227 30.8349 45.9717 30.8333 42.7454C30.8318 39.5192 31.9697 36.7682 34.247 34.4924C36.5243 32.2167 39.2753 31.0788 42.5 31.0788C45.7247 31.0788 48.4764 32.2167 50.7553 34.4924C53.0342 36.7682 54.1713 39.5192 54.1667 42.7454C54.162 45.9717 53.0241 48.7234 50.753 51.0008C48.4819 53.2781 45.7309 54.4152 42.5 54.4121ZM46.4083 48.2871L48.0417 46.6538L43.6667 42.2788V35.7454H41.3333V43.2121L46.4083 48.2871Z" fill="#222222"/>
<mask id="mask0_4102_266" style="mask-type:alpha" maskUnits="userSpaceOnUse" x="30" y="31" width="25" height="24">
<rect x="30.8193" y="31.0488" width="23.3611" height="23.3823" fill="#D9D9D9"/>
</mask>
<g mask="url(#mask0_4102_266)">
<path d="M12.1667 19.4121H44.8333V14.7454H12.1667V19.4121ZM7.5 52.0788V10.0788H14.5V5.41211H19.1667V10.0788H37.8333V5.41211H42.5V10.0788H49.5V27.9871C48.7611 27.6371 48.0028 27.3454 47.225 27.1121C46.4472 26.8788 45.65 26.7038 44.8333 26.5871V24.0788H12.1667V47.4121H26.8667C27.1389 48.2677 27.4601 49.0843 27.8303 49.8621C28.2006 50.6399 28.6377 51.3788 29.1417 52.0788H7.5ZM42.5 54.4121C39.2722 54.4121 36.5212 53.2742 34.247 50.9984C31.9728 48.7227 30.8349 45.9717 30.8333 42.7454C30.8318 39.5192 31.9697 36.7682 34.247 34.4924C36.5243 32.2167 39.2753 31.0788 42.5 31.0788C45.7247 31.0788 48.4764 32.2167 50.7553 34.4924C53.0342 36.7682 54.1713 39.5192 54.1667 42.7454C54.162 45.9717 53.0241 48.7234 50.753 51.0008C48.4819 53.2781 45.7309 54.4152 42.5 54.4121ZM46.4083 48.2871L48.0417 46.6538L43.6667 42.2788V35.7454H41.3333V43.2121L46.4083 48.2871Z" fill="url(#paint0_linear_4102_266)"/>
</g>
<defs>
<linearGradient id="paint0_linear_4102_266" x1="54.1667" y1="5.41211" x2="7.96807" y2="4.97471" gradientUnits="userSpaceOnUse">
<stop stop-color="#FFF800"/>
<stop offset="1" stop-color="#FB0000"/>
</linearGradient>
</defs>
</svg>
