<svg width="61" height="60" viewBox="0 0 61 60" fill="none" xmlns="http://www.w3.org/2000/svg">
<path d="M31.1223 37.2817L13.9672 54.2635C13.5833 54.6442 13.1274 54.9463 12.6255 55.1523C12.1236 55.3584 11.5856 55.4645 11.0422 55.4645C10.4988 55.4645 9.96078 55.3584 9.45887 55.1523C8.95697 54.9463 8.50104 54.6442 8.11718 54.2635L5.69269 51.8635C5.30811 51.4836 5.003 51.0322 4.79482 50.5354C4.58665 50.0386 4.47949 49.506 4.47949 48.9681C4.47949 48.4302 4.58665 47.8976 4.79482 47.4008C5.003 46.9039 5.30811 46.4526 5.69269 46.0726L22.8478 29.0908" stroke="#222222" stroke-width="4.5" stroke-linecap="round" stroke-linejoin="round"/>
<path d="M33.5613 26.6752L48.8674 11.5237M51.9287 14.554L45.8062 8.49342L53.4593 3.94797L56.5205 6.97827L51.9287 14.554ZM6.08682 20.5389C4.6171 19.0853 3.606 17.2401 3.17663 15.2279C2.74726 13.2157 2.91813 11.1233 3.66845 9.20554L8.02151 13.5146H14.144V7.45403L9.7909 3.14493C11.7284 2.40051 13.8428 2.22997 15.8765 2.65408C17.9101 3.07818 19.7753 4.07864 21.2447 5.53354C22.7142 6.98845 23.7244 8.83501 24.1524 10.8482C24.5804 12.8615 24.4076 14.9545 23.6552 16.8722L43.4613 36.4813C45.3986 35.7365 47.513 35.5655 49.5467 35.9891C51.5805 36.4128 53.4459 37.4128 54.9157 38.8674C56.3854 40.322 57.3961 42.1683 57.8245 44.1815C58.253 46.1946 58.0807 48.2876 57.3287 50.2055L52.9787 45.8965H46.8562V51.9571L51.2093 56.2661C49.2723 57.0106 47.1584 57.1814 45.1251 56.7578C43.0917 56.3342 41.2267 55.3344 39.7571 53.8803C38.2875 52.4262 37.2768 50.5805 36.848 48.5679C36.4192 46.5553 36.5908 44.4627 37.3419 42.5449L17.5297 22.9328C15.5931 23.6743 13.4807 23.8427 11.4492 23.4177C9.41768 22.9927 7.55471 21.9926 6.08682 20.5389Z" stroke="#222222" stroke-width="4.5" stroke-linecap="round" stroke-linejoin="round"/>
<mask id="mask0_4102_581" style="mask-type:alpha" maskUnits="userSpaceOnUse" x="0" y="0" width="61" height="60">
<path d="M33.5613 26.6752L48.8674 11.5237M51.9287 14.554L45.8062 8.49342L53.4593 3.94797L56.5205 6.97827L51.9287 14.554ZM6.08682 20.5389C4.6171 19.0853 3.606 17.2401 3.17663 15.2279C2.74726 13.2157 2.91813 11.1233 3.66845 9.20554L8.02151 13.5146H14.144V7.45403L9.7909 3.14493C11.7284 2.40051 13.8428 2.22997 15.8765 2.65408C17.9101 3.07818 19.7753 4.07864 21.2447 5.53354C22.7142 6.98845 23.7244 8.83501 24.1524 10.8482C24.5804 12.8615 24.4076 14.9545 23.6552 16.8722L43.4613 36.4813C45.3986 35.7365 47.513 35.5655 49.5467 35.9891C51.5805 36.4128 53.4459 37.4128 54.9157 38.8674C56.3854 40.322 57.3961 42.1683 57.8245 44.1815C58.253 46.1946 58.0807 48.2876 57.3287 50.2055L52.9787 45.8965H46.8562V51.9571L51.2093 56.2661C49.2723 57.0106 47.1584 57.1814 45.1251 56.7578C43.0917 56.3342 41.2267 55.3344 39.7571 53.8803C38.2875 52.4262 37.2768 50.5805 36.848 48.5679C36.4192 46.5553 36.5908 44.4627 37.3419 42.5449L17.5297 22.9328C15.5931 23.6743 13.4807 23.8427 11.4492 23.4177C9.41768 22.9927 7.55471 21.9926 6.08682 20.5389Z" stroke="#222222" stroke-width="4.5" stroke-linecap="round" stroke-linejoin="round"/>
</mask>
<g mask="url(#mask0_4102_581)">
<path d="M36.7979 26.7288L33.5928 23.5236L45.5087 11.5626L44.0842 10.1381L43.4059 9.09806V8.41974V7.65101L44.0842 6.71267L52.5632 1.72704L52.9363 1.58008H53.5354L54.2929 1.72704L54.7451 1.98705L58.5776 5.87605L58.8489 6.71267L58.7811 7.65101L53.445 16.65L51.3196 17.3736L48.7363 14.7903L36.7979 26.7288Z" fill="url(#paint0_linear_4102_581)"/>
</g>
<defs>
<linearGradient id="paint0_linear_4102_581" x1="58.8489" y1="1.58008" x2="33.8463" y2="1.33046" gradientUnits="userSpaceOnUse">
<stop stop-color="#FFF800"/>
<stop offset="1" stop-color="#FB0000"/>
</linearGradient>
</defs>
</svg>
