<svg width="61" height="61" viewBox="0 0 61 61" fill="none" xmlns="http://www.w3.org/2000/svg">
<g clip-path="url(#clip0_4102_646)">
<path d="M28.0407 17.6237L28.338 16.3804C28.3867 16.2165 28.438 16.0534 28.4921 15.8913L29.4948 13.6184C30.5304 11.7563 31.9917 10.1656 33.7593 8.97598C35.5269 7.78636 37.5508 7.03157 39.6657 6.77323C41.7806 6.51488 43.9267 6.7603 45.9286 7.48945C47.9306 8.2186 49.7319 9.41081 51.1853 10.9688C52.6387 12.5268 53.7031 14.4063 54.2916 16.4541C54.8801 18.5018 54.9761 20.6597 54.5717 22.7516C54.1672 24.8435 53.2739 26.8102 51.9645 28.491C50.6552 30.1719 48.9669 31.5193 47.0375 32.4233L45.5997 32.9989L45.2835 33.0989L43.9025 33.4448C43.0629 33.6106 42.1989 33.6935 41.3107 33.6935C39.3193 33.6936 37.3526 33.2536 35.5511 32.405C33.7497 31.5564 32.158 30.3201 30.8901 28.7846C29.6221 27.2491 28.7092 25.4524 28.2166 23.5229C27.724 21.5935 27.664 19.579 28.0407 17.6237ZM23.6625 13.3454C21.2092 14.2989 18.9812 15.7524 17.1201 17.6135C15.259 19.4747 13.8055 21.7027 12.852 24.1559C8.73823 25.7536 5.31226 28.7388 3.16661 32.5952C1.02096 36.4516 0.290578 40.9366 1.10179 45.2745C1.913 49.6124 4.2148 53.5304 7.60904 56.3508C11.0033 59.1712 15.2765 60.7166 19.6896 60.7198C23.5062 60.721 27.2338 59.5678 30.383 57.4118C33.5322 55.2557 35.9557 52.1976 37.3351 48.639C37.6918 48.4985 38.0432 48.3489 38.3891 48.1904L39.3026 47.8255L39.2756 47.7553C43.3331 45.6237 46.4834 42.0972 48.1456 37.8258C48.5024 37.6889 48.8555 37.5402 49.205 37.3799L50.1131 37.015L50.0861 36.9448C52.7932 35.5249 55.1159 33.4703 56.8555 30.9566C58.595 28.443 59.6995 25.5453 60.0745 22.5116C60.4495 19.4778 60.0837 16.3984 59.0086 13.5369C57.9334 10.6753 56.1809 8.11697 53.901 6.08073C51.621 4.0445 48.8817 2.59106 45.9173 1.84483C42.953 1.0986 39.8519 1.0818 36.8797 1.79587C33.9074 2.50995 31.1524 3.93362 28.8506 5.94503C26.5487 7.95645 24.7686 10.4957 23.6625 13.3454ZM41.3107 39.0987C39.9803 40.8737 38.2334 42.2938 36.2243 43.2338L34.7919 43.8067L34.4676 43.9148L33.0974 44.2554C32.2559 44.4193 31.3902 44.5022 30.5001 44.504C28.5088 44.5041 26.5421 44.0641 24.7406 43.2155C22.9391 42.3669 21.3475 41.1306 20.0795 39.5951C18.8116 38.0597 17.8987 36.2629 17.4061 34.3335C16.9135 32.404 16.8535 30.3895 17.2302 28.4342L17.5275 27.191C17.5762 27.027 17.6275 26.8639 17.6816 26.7018L18.6869 24.4262C19.6096 22.7652 20.8722 21.3176 22.3923 20.1776C22.3923 25.1951 24.3854 30.0098 27.9333 33.5577C31.4812 37.1056 36.2932 39.0987 41.3107 39.0987ZM11.5817 30.9909C11.5817 36.0083 13.5749 40.8203 17.1228 44.3682C20.6707 47.9161 25.4827 49.9093 30.5001 49.9093C29.3385 51.4581 27.8576 52.7393 26.1578 53.666C24.4579 54.5927 22.5787 55.1433 20.6476 55.2805C18.7164 55.4178 16.7782 55.1384 14.9644 54.4615C13.1506 53.7845 11.5034 52.7256 10.1344 51.3566C8.76538 49.9876 7.70653 48.3404 7.02954 46.5266C6.35255 44.7128 6.07322 42.7746 6.21047 40.8434C6.34771 38.9123 6.89833 37.0331 7.82503 35.3332C8.75173 33.6334 10.0329 32.1525 11.5817 30.9909Z" fill="#222222"/>
<mask id="mask0_4102_646" style="mask-type:alpha" maskUnits="userSpaceOnUse" x="0" y="1" width="61" height="60">
<path d="M28.0407 17.6237L28.338 16.3804C28.3867 16.2165 28.438 16.0534 28.4921 15.8913L29.4948 13.6184C30.5304 11.7563 31.9917 10.1656 33.7593 8.97598C35.5269 7.78636 37.5508 7.03157 39.6657 6.77323C41.7806 6.51488 43.9267 6.7603 45.9286 7.48945C47.9306 8.2186 49.7319 9.41081 51.1853 10.9688C52.6387 12.5268 53.7031 14.4063 54.2916 16.4541C54.8801 18.5018 54.9761 20.6597 54.5717 22.7516C54.1672 24.8435 53.2739 26.8102 51.9645 28.491C50.6552 30.1719 48.9669 31.5193 47.0375 32.4233L45.5997 32.9989L45.2835 33.0989L43.9025 33.4448C43.0629 33.6106 42.1989 33.6935 41.3107 33.6935C39.3193 33.6936 37.3526 33.2536 35.5511 32.405C33.7497 31.5564 32.158 30.3201 30.8901 28.7846C29.6221 27.2491 28.7092 25.4524 28.2166 23.5229C27.724 21.5935 27.664 19.579 28.0407 17.6237ZM23.6625 13.3454C21.2092 14.2989 18.9812 15.7524 17.1201 17.6135C15.259 19.4747 13.8055 21.7027 12.852 24.1559C8.73823 25.7536 5.31226 28.7388 3.16661 32.5952C1.02096 36.4516 0.290578 40.9366 1.10179 45.2745C1.913 49.6124 4.2148 53.5304 7.60904 56.3508C11.0033 59.1712 15.2765 60.7166 19.6896 60.7198C23.5062 60.721 27.2338 59.5678 30.383 57.4118C33.5322 55.2557 35.9557 52.1976 37.3351 48.639C37.6918 48.4985 38.0432 48.3489 38.3891 48.1904L39.3026 47.8255L39.2756 47.7553C43.3331 45.6237 46.4834 42.0972 48.1456 37.8258C48.5024 37.6889 48.8555 37.5402 49.205 37.3799L50.1131 37.015L50.0861 36.9448C52.7932 35.5249 55.1159 33.4703 56.8555 30.9566C58.595 28.443 59.6995 25.5453 60.0745 22.5116C60.4495 19.4778 60.0837 16.3984 59.0086 13.5369C57.9334 10.6753 56.1809 8.11697 53.901 6.08073C51.621 4.0445 48.8817 2.59106 45.9173 1.84483C42.953 1.0986 39.8519 1.0818 36.8797 1.79587C33.9074 2.50995 31.1524 3.93362 28.8506 5.94503C26.5487 7.95645 24.7686 10.4957 23.6625 13.3454ZM41.3107 39.0987C39.9803 40.8737 38.2334 42.2938 36.2243 43.2338L34.7919 43.8067L34.4676 43.9148L33.0974 44.2554C32.2559 44.4193 31.3902 44.5022 30.5001 44.504C28.5088 44.5041 26.5421 44.0641 24.7406 43.2155C22.9391 42.3669 21.3475 41.1306 20.0795 39.5951C18.8116 38.0597 17.8987 36.2629 17.4061 34.3335C16.9135 32.404 16.8535 30.3895 17.2302 28.4342L17.5275 27.191C17.5762 27.027 17.6275 26.8639 17.6816 26.7018L18.6869 24.4262C19.6096 22.7652 20.8722 21.3176 22.3923 20.1776C22.3923 25.1951 24.3854 30.0098 27.9333 33.5577C31.4812 37.1056 36.2932 39.0987 41.3107 39.0987ZM11.5817 30.9909C11.5817 36.0083 13.5749 40.8203 17.1228 44.3682C20.6707 47.9161 25.4827 49.9093 30.5001 49.9093C29.3385 51.4581 27.8576 52.7393 26.1578 53.666C24.4579 54.5927 22.5787 55.1433 20.6476 55.2805C18.7164 55.4178 16.7782 55.1384 14.9644 54.4615C13.1506 53.7845 11.5034 52.7256 10.1344 51.3566C8.76538 49.9876 7.70653 48.3404 7.02954 46.5266C6.35255 44.7128 6.07322 42.7746 6.21047 40.8434C6.34771 38.9123 6.89833 37.0331 7.82503 35.3332C8.75173 33.6334 10.0329 32.1525 11.5817 30.9909Z" fill="url(#paint0_linear_4102_646)"/>
</mask>
<g mask="url(#mask0_4102_646)">
<path d="M23.5068 13.2978L48.2542 38.0451L50.5152 36.9597L52.6858 35.6031L54.359 34.2465L55.5348 32.9351L56.5748 31.6689L57.7506 29.8148L58.9263 27.3276L59.6951 25.3379L60.1925 23.2125L60.5091 20.8158V19.8661L60.1925 17.1077L59.6951 14.8014L58.9263 12.676L57.7506 10.4149L57.0723 9.37483L56.0322 8.06342L54.766 6.39027L53.3641 5.39537L51.0126 3.63175L49.3395 2.77258L47.4402 2.27511L43.4607 0.918457H40.657L38.3507 1.28025L35.8636 1.86812L33.2859 2.77258L30.8892 4.12921L27.8594 6.39027L25.6436 8.87742L24.6261 10.8219L23.5068 13.2978Z" fill="url(#paint1_linear_4102_646)"/>
</g>
</g>
<defs>
<linearGradient id="paint0_linear_4102_646" x1="60.2174" y1="1.27246" x2="1.376" y2="0.687592" gradientUnits="userSpaceOnUse">
<stop stop-color="#FFF800"/>
<stop offset="1" stop-color="#FB0000"/>
</linearGradient>
<linearGradient id="paint1_linear_4102_646" x1="60.5091" y1="0.918457" x2="23.8783" y2="0.555519" gradientUnits="userSpaceOnUse">
<stop stop-color="#FFF800"/>
<stop offset="1" stop-color="#FB0000"/>
</linearGradient>
<clipPath id="clip0_4102_646">
<rect width="60" height="60" fill="white" transform="translate(0.5 0.745117)"/>
</clipPath>
</defs>
</svg>
